<svg width="20" height="20" viewBox="0 0 20 20" fill="none"
  xmlns="http://www.w3.org/2000/svg">
  <path d="M5.93 16.44c-.5 0-.88-.14-1.16-.42-.27-.28-.4-.67-.4-1.18V4.77c0-.51.13-.9.4-1.18.28-.28.67-.42 1.16-.42h4.7c.87 0 1.6.13 2.22.4A3.1 3.1 0 0114.8 6.5c0 .5-.1.95-.32 1.35-.22.4-.52.74-.91 1-.39.27-.84.43-1.35.5v.08c.63.03 1.18.19 1.66.47a3.16 3.16 0 011.53 2.75c0 .77-.2 1.43-.57 2-.38.57-.91 1-1.6 1.32a6 6 0 01-2.46.47H5.93zm1.5-2.15h2.4a3 3 0 001.82-.47c.43-.32.64-.79.64-1.4 0-.59-.22-1.04-.66-1.35a3.2 3.2 0 00-1.87-.46H7.43v3.68zm0-5.61h2.05c.72 0 1.28-.15 1.69-.46.4-.3.6-.72.6-1.26 0-.5-.17-.9-.54-1.18a2.42 2.42 0 00-1.52-.43H7.43v3.33z" fill="#75757d"></path>
</svg>