<?xml version="1.0" standalone="no"?><!DOCTYPE svg PUBLIC "-//W3C//DTD SVG 1.1//EN" "http://www.w3.org/Graphics/SVG/1.1/DTD/svg11.dtd"><svg t="1703513923943" class="icon" viewBox="0 0 1024 1024" version="1.1" xmlns="http://www.w3.org/2000/svg" p-id="8413" width="32" height="32" xmlns:xlink="http://www.w3.org/1999/xlink"><path d="M419.612444 802.645333l92.103112 92.046223a34.474667 34.474667 0 1 1-48.753778 48.753777L370.915556 851.342222a34.474667 34.474667 0 0 1 48.696888-48.696889z m363.975112 8.760889l73.102222 73.102222a34.474667 34.474667 0 1 1-48.753778 48.753778l-73.102222-73.102222a34.474667 34.474667 0 1 1 48.753778-48.753778zM466.887111 63.488c4.835556 2.730667 8.874667 6.769778 11.605333 11.605333l112.810667 200.078223 225.109333 45.454222a30.606222 30.606222 0 0 1 16.497778 50.744889L677.546667 540.444444l26.339555 228.181334a30.606222 30.606222 0 0 1-43.178666 31.345778l-208.782223-95.573334-208.896 95.573334a30.606222 30.606222 0 0 1-43.178666-31.345778l26.396444-228.124445-155.477333-169.130666a30.606222 30.606222 0 0 1 16.497778-50.744889l225.166222-45.454222L425.130667 75.093333a30.606222 30.606222 0 0 1 41.756444-11.605333z m-15.075555 104.675556l-94.890667 168.391111-189.44 38.172444L298.211556 517.12l-22.186667 192 175.786667-80.440889 175.729777 80.440889-22.186666-192 130.844444-142.336-189.496889-38.229333-94.947555-168.391111z m389.973333 329.102222l92.046222 92.046222a34.474667 34.474667 0 0 1-48.696889 48.753778L793.031111 546.019556a34.474667 34.474667 0 1 1 48.753778-48.753778z" fill="#2c2c2c" p-id="8414"></path></svg>