<svg width="20" height="20" viewBox="0 0 20 20" fill="none"
  xmlns="http://www.w3.org/2000/svg">
  <path d="M2.78 16a.78.78 0 01-.55-.21.67.67 0 01-.23-.51V4.72c0-.2.08-.37.23-.5A.78.78 0 012.78 4c.21 0 .4.07.54.21.16.14.23.31.23.51v4.51h6.9v-4.5c0-.2.08-.38.23-.52a.78.78 0 01.54-.21c.22 0 .4.07.55.21.15.14.23.31.23.51v10.56c0 .2-.08.37-.23.5a.78.78 0 01-.55.22.78.78 0 01-.54-.21.67.67 0 01-.23-.51v-4.79h-6.9v4.79c0 .2-.07.37-.23.5a.78.78 0 01-.54.22zM14.93 15.82c.1.12.24.18.42.18.2 0 .34-.06.44-.18.1-.11.16-.28.16-.48V9.66c0-.2-.06-.37-.16-.48-.11-.12-.27-.18-.47-.18-.23 0-.49.1-.77.29l-1.32.9a.48.48 0 00-.11.71c.08.1.18.14.3.14l.15-.03a.77.77 0 00.2-.1l.96-.63h.05v5.06c0 .2.05.37.15.48z" fill="#75757d"></path>
</svg>