<svg width="20" height="20" viewBox="0 0 20 20" fill="none" xmlns="http://www.w3.org/2000/svg"><path d="M2.78 16a.78.78 0 01-.55-.21.67.67 0 01-.23-.51V4.72c0-.2.08-.37.23-.5A.78.78 0 012.78 4c.21 0 .4.07.54.21.16.14.23.31.23.51v4.51h6.9v-4.5c0-.2.08-.38.23-.52a.78.78 0 01.54-.21c.22 0 .4.07.55.21.15.14.23.31.23.51v10.56c0 .2-.08.37-.23.5a.78.78 0 01-.55.22.78.78 0 01-.54-.21.67.67 0 01-.23-.51v-4.79h-6.9v4.79c0 .2-.07.37-.23.5a.78.78 0 01-.54.22zM13.18 15.95c.1.09.22.13.4.13h3.92c.14 0 .26-.04.36-.13.1-.09.14-.21.14-.36a.47.47 0 00-.14-.37.5.5 0 00-.36-.14h-2.8v-.05l1.82-1.93c.34-.36.61-.7.82-1.04.22-.33.32-.71.32-1.13 0-.58-.2-1.05-.64-1.4-.42-.35-.99-.53-1.7-.53-.53 0-1.02.14-1.45.43a1.94 1.94 0 00-.86 1.24l-.01.14c0 .15.05.27.14.36.09.09.2.13.36.13.13 0 .24-.03.32-.1.08-.08.15-.17.22-.28a2 2 0 01.46-.65c.21-.2.5-.3.88-.3.36 0 .66.1.87.29.23.2.34.44.34.76 0 .27-.1.53-.3.78-.19.24-.4.48-.62.71l-2.43 2.62a.9.9 0 00-.16.23.57.57 0 00-.05.23c0 .15.05.27.15.36z" fill="#75757d"></path></svg>