<svg width="20" height="20" viewBox="0 0 20 20" fill="none" xmlns="http://www.w3.org/2000/svg"><path d="M2.78 16a.78.78 0 01-.55-.21.67.67 0 01-.23-.51V4.72c0-.2.08-.37.23-.5A.78.78 0 012.78 4c.21 0 .4.07.54.21.16.14.23.31.23.51v4.51h6.9v-4.5c0-.2.08-.38.23-.52a.78.78 0 01.54-.21c.22 0 .4.07.55.21.15.14.23.31.23.51v10.56c0 .2-.08.37-.23.5a.78.78 0 01-.55.22.78.78 0 01-.54-.21.67.67 0 01-.23-.51v-4.79h-6.9v4.79c0 .2-.07.37-.23.5a.78.78 0 01-.54.22zM13.85 15.61c.44.26.96.39 1.56.39.8 0 1.41-.19 1.87-.56.46-.37.68-.85.68-1.43 0-.43-.14-.8-.44-1.1a1.64 1.64 0 00-1.1-.54v-.05c.37-.06.68-.23.93-.53.25-.3.38-.65.38-1.03 0-.51-.21-.93-.63-1.26-.43-.33-.97-.5-1.62-.5-.6 0-1.11.13-1.53.39a1.6 1.6 0 00-.81 1.33c0 .14.05.26.14.35.1.1.22.14.37.14.25 0 .41-.13.5-.39.08-.27.23-.49.45-.65.23-.16.51-.24.86-.24.36 0 .65.08.86.25.21.18.32.41.32.71s-.12.56-.35.76c-.22.2-.51.3-.86.3h-.47a.46.46 0 00-.33.12.45.45 0 00-.12.33c0 .12.04.23.12.32.1.08.2.13.33.13h.51c.42 0 .75.1 1 .31.27.2.4.48.4.81 0 .33-.13.6-.4.8-.26.2-.6.3-1.04.3-.4 0-.7-.09-.94-.26a1.33 1.33 0 01-.48-.64c-.1-.25-.26-.38-.5-.38a.51.51 0 00-.37.14c-.1.1-.14.22-.14.36 0 .1.01.19.04.28.1.43.38.78.81 1.04z" fill="#1D1D1F"></path></svg>