<svg width="20" height="20" viewBox="0 0 20 20" fill="none" xmlns="http://www.w3.org/2000/svg"><path d="M9.54 15.65c-.94 0-1.75-.18-2.43-.53a3.82 3.82 0 01-2.12-3.61V4.8c0-.22.06-.4.19-.53a.7.7 0 01.52-.2c.23 0 .4.07.53.2.14.13.2.3.2.53v6.6c0 .57.13 1.08.37 1.52.25.44.6.78 1.07 1.03.46.25 1.02.37 1.67.37.98 0 1.74-.27 2.29-.81.54-.54.82-1.25.82-2.12V4.8c0-.21.06-.39.19-.52a.7.7 0 01.52-.2c.22 0 .4.07.53.2.14.13.2.3.2.53v6.7c0 .83-.18 1.55-.55 2.17-.37.62-.89 1.1-1.57 1.46-.68.34-1.5.52-2.43.52zm-4.09 2.4a.46.46 0 01-.33-.14.45.45 0 01-.13-.32.46.46 0 01.46-.47h8.18c.13 0 .23.04.32.13.1.09.14.2.14.34 0 .13-.04.24-.14.32a.45.45 0 01-.32.14H5.45z" fill="#75757d"></path></svg>